<svg width="194" height="12" viewBox="0 0 194 12" fill="none" xmlns="http://www.w3.org/2000/svg">
<path d="M0.166667 6C0.166667 8.94552 2.55448 11.3333 5.5 11.3333C8.44552 11.3333 10.8333 8.94552 10.8333 6C10.8333 3.05448 8.44552 0.666667 5.5 0.666667C2.55448 0.666667 0.166667 3.05448 0.166667 6ZM183.167 6C183.167 8.94552 185.554 11.3333 188.5 11.3333C191.446 11.3333 193.833 8.94552 193.833 6C193.833 3.05448 191.446 0.666667 188.5 0.666667C185.554 0.666667 183.167 3.05448 183.167 6ZM5.5 7H188.5V5H5.5V7Z" fill="#12F7D6"/>
</svg>
